<svg width="105" height="23" viewBox="0 0 105 23" fill="none" xmlns="http://www.w3.org/2000/svg">
<path d="M18.1607 0.398438L11.6662 15.9352L5.2618 0.398438H0L9.08037 22.1498H13.8912L23.0016 0.398438H18.1607Z" fill="white"/>
<path d="M39.0698 13.8532C39.0698 8.47753 35.4016 5.18375 30.6509 5.18375C25.7199 5.18375 22.0216 8.78827 22.0216 13.7911C22.0216 18.7628 25.6598 22.3984 31.2523 22.3984C34.1688 22.3984 36.4239 21.4662 37.9273 19.695L35.4317 16.8984C34.3192 17.986 33.0864 18.5143 31.3726 18.5143C28.907 18.5143 27.1932 17.2402 26.7422 15.1583H38.9796C39.0097 14.7544 39.0698 14.2261 39.0698 13.8532ZM30.681 8.85042C32.7857 8.85042 34.3192 10.2176 34.6499 12.3306H26.682C27.0128 10.1866 28.5462 8.85042 30.681 8.85042Z" fill="white"/>
<path d="M46.6727 7.63855V5.43234H42.1926V22.1498H46.8831V14.2572C46.8831 11.0566 48.597 9.59618 51.1828 9.59618C51.5436 9.59618 51.8443 9.62725 52.2351 9.65833V5.18375C49.7395 5.18375 47.8152 6.02273 46.6727 7.63855Z" fill="white"/>
<path d="M64.8562 5.18375C62.6613 5.18375 60.767 5.96059 59.5042 7.38996V5.43234H55.0241V22.1498H59.7147V13.8843C59.7147 10.808 61.3383 9.37866 63.5934 9.37866C65.668 9.37866 66.8707 10.6216 66.8707 13.325V22.1498H71.5612V12.5792C71.5612 7.48318 68.6748 5.18375 64.8562 5.18375Z" fill="white"/>
<path d="M91.8347 13.8532C91.8347 8.47753 88.1665 5.18375 83.4158 5.18375C78.4847 5.18375 74.7864 8.78827 74.7864 13.7911C74.7864 18.7628 78.4246 22.3984 84.0171 22.3984C86.9337 22.3984 89.1887 21.4662 90.6921 19.695L88.1965 16.8984C87.084 17.986 85.8513 18.5143 84.1374 18.5143C81.6719 18.5143 79.958 17.2402 79.507 15.1583H91.7445C91.7745 14.7544 91.8347 14.2261 91.8347 13.8532ZM83.4459 8.85042C85.5506 8.85042 87.084 10.2176 87.4148 12.3306H79.4469C79.7776 10.1866 81.3111 8.85042 83.4459 8.85042Z" fill="white"/>
<path d="M99.4375 7.63855V5.43234H94.9575V22.1498H99.648V14.2572C99.648 11.0566 101.362 9.59618 103.948 9.59618C104.308 9.59618 104.609 9.62725 105 9.65833V5.18375C102.504 5.18375 100.58 6.02273 99.4375 7.63855Z" fill="white"/>
</svg>
