<svg width="39" height="46" viewBox="0 0 39 46" fill="none" xmlns="http://www.w3.org/2000/svg">
<path d="M3.84331 30.4987C3.17723 30.3118 2.7682 30.1548 2.61622 30.0276C2.49813 29.9066 2.37524 29.6186 2.24755 29.1636C2.02301 28.8572 1.89139 28.6174 1.85271 28.4443C1.84791 28.2773 1.87699 28.1165 1.93996 27.9617C2.34659 28.0353 2.59543 28.0138 2.68647 27.8974C2.70392 27.8009 2.76638 27.7457 2.87386 27.7319C3.01522 27.7243 3.15076 27.7488 3.28049 27.8054C4.18376 28.0352 5.58674 27.8238 7.48943 27.1711C9.39212 26.5184 11.3443 25.5923 13.3458 24.3927C14.5438 23.38 15.3902 22.5695 15.8851 21.9613C16.4139 21.3592 16.7161 20.8491 16.7917 20.4308C16.8382 20.1734 16.831 19.923 16.7701 19.6794C16.7092 19.4358 16.3737 19.2589 15.7638 19.1486C14.7133 18.9586 13.565 19.1165 12.3188 19.622C10.7046 20.2272 9.39016 20.8201 8.37533 21.4008C7.36632 21.9493 6.40182 22.6387 5.48182 23.4691C5.06733 23.826 4.63249 24.2956 4.17729 24.8778C3.72791 25.4278 3.43493 25.7901 3.29837 25.9647C3.2751 26.0934 3.0427 26.2175 2.60117 26.337C2.19353 26.4627 1.85416 26.501 1.58308 26.452C1.42528 26.357 1.24524 26.1915 1.04294 25.9556C0.874532 25.7258 0.796653 25.4792 0.809305 25.2157C0.753168 25.1391 0.649112 25.0372 0.497136 24.91C0.379045 24.789 0.29484 24.6741 0.244521 24.5653C0.228087 24.4627 0.231504 24.347 0.254773 24.2183C0.289677 24.0253 0.450016 23.6224 0.73579 23.0096C1.06127 22.3707 1.30392 21.8996 1.46375 21.5963C1.95589 20.4228 2.52453 19.2132 3.16967 17.9677C3.84869 16.7283 4.28455 16.0596 4.47725 15.9615C4.52277 15.9033 4.62253 15.7386 4.77655 15.4675C4.96445 15.2024 5.08748 14.909 5.14565 14.5873C5.26578 14.31 5.42561 14.0067 5.62514 13.6773C5.86438 13.3219 5.98981 13.112 6.00145 13.0476C6.19415 12.9496 6.9661 11.7768 8.31731 9.52934C8.34058 9.40065 8.86748 8.61549 9.89801 7.17385C11.4525 4.96314 12.4095 3.54141 12.7688 2.90869C13.1494 2.5456 13.4991 2.16029 13.8177 1.75277C14.3068 1.17672 14.6419 0.87185 14.8229 0.838143C15.1056 0.822814 15.4358 0.932342 15.8133 1.16673C16.2247 1.40724 16.52 1.7098 16.699 2.07442C16.8277 2.33026 16.8833 2.50643 16.8659 2.60295C16.8368 2.76381 16.6799 3.05107 16.3951 3.46471C16.1501 3.85231 15.8682 4.24988 15.5496 4.6574C15.2309 5.06491 15.0004 5.37209 14.858 5.57891L13.1336 7.85857C11.8871 9.52695 10.8449 11.0329 10.0071 12.3765C9.17507 13.6879 8.27135 15.2023 7.29594 16.9197L5.95345 19.1189L5.50734 20.1347L6.98748 19.2062C7.44646 18.9902 8.29956 18.5298 9.54679 17.8251C9.81889 17.6749 10.0513 17.5508 10.244 17.4528C10.4764 17.3287 10.6521 17.2276 10.7713 17.1494C11.2244 16.9656 11.8698 16.7833 12.7073 16.6025C13.5449 16.4217 14.1219 16.3267 14.4385 16.3175C15.1453 16.2791 15.9054 16.3335 16.7186 16.4806C17.4302 16.6092 17.9941 16.8773 18.4104 17.2848C18.8266 17.6923 19.191 18.2898 19.5035 19.0772C19.7038 19.7115 19.7428 20.3664 19.6206 21.042C19.4403 22.0394 19.0005 22.9233 18.3013 23.6939C18.1086 23.792 17.9072 23.9383 17.697 24.1329C17.4927 24.2953 17.3789 24.4408 17.3556 24.5695C17.2868 24.7564 16.9203 25.1387 16.2559 25.7162C15.5916 26.2938 14.8764 26.8622 14.1104 27.4214C13.0723 28.1307 11.7462 28.788 10.1321 29.3932C8.55181 30.0045 7.25819 30.3852 6.25122 30.5354C6.04209 30.5308 5.64077 30.5247 5.04726 30.517C4.49346 30.4833 4.09214 30.4772 3.84331 30.4987Z" fill="#F9A9A1"/>
<path d="M37.9666 19.0268C38.1446 19.5906 38.1784 20.1781 38.0679 20.7894C37.8933 21.7546 37.4652 22.5742 36.7834 23.2483C36.3631 23.6374 35.936 24.2579 35.502 25.1097C35.1019 25.9676 34.6466 27.1312 34.136 28.6004C33.6099 29.7678 32.8969 31.5825 31.9968 34.0444C31.2103 35.2976 30.6882 36.2498 30.4305 36.9009C30.3617 37.0878 30.1196 37.4593 29.7041 38.0154C29.3224 38.5777 29.0149 39.0204 28.7815 39.3437C26.9888 41.7107 25.1202 43.4327 23.1758 44.5097C21.2313 45.5868 19.2479 46.0089 17.2253 45.7761C16.6715 45.7424 16.3438 45.7164 16.2421 45.698C15.9372 45.6428 15.6579 45.5425 15.4042 45.397C15.1845 45.2575 14.9367 45.0798 14.6608 44.8638C14.5369 44.775 14.3709 44.6287 14.1628 44.4249C13.9546 44.2212 13.8085 44.0619 13.7243 43.947C13.6681 43.8704 13.6488 43.7838 13.6663 43.6873C13.6953 43.5264 13.8261 43.384 14.0585 43.2599C14.2909 43.1358 14.6273 43.1135 15.0679 43.1932C15.2818 43.3648 15.6768 43.5026 16.2528 43.6068C16.8289 43.711 17.1794 43.7079 17.3043 43.5976C17.3837 43.5455 17.6074 43.4696 17.9753 43.3701C18.3375 43.3026 18.7475 43.2605 19.2055 43.2436C20.3432 42.951 21.3885 42.4921 22.3413 41.8671C23.3223 41.2803 24.2733 40.4721 25.1943 39.4426C26.2625 38.3732 27.0223 37.3644 27.4737 36.4161C27.9009 35.7956 28.4142 34.8917 29.0138 33.7044C29.6532 32.491 30.1845 31.391 30.6079 30.4044L29.8424 30.864C29.638 31.0264 29.1621 31.2394 28.4146 31.5029C27.6729 31.7343 27.2343 31.8377 27.0987 31.8132C27.0648 31.8071 27.0111 31.814 26.9375 31.8339C26.8639 31.8538 26.8184 31.912 26.8009 32.0085C26.7777 32.1372 26.2994 32.2667 25.366 32.3969C24.4384 32.495 23.856 32.5226 23.6188 32.4797C23.28 32.4184 22.9363 32.1902 22.5879 31.7949C22.2791 31.3736 22.0691 30.9868 21.9578 30.6344C21.8969 30.3909 21.8079 30.109 21.6908 29.7888C21.5738 29.4686 21.4877 29.1706 21.4325 28.8949C21.3832 28.5869 21.3906 28.256 21.4546 27.9021C21.5302 27.4839 21.6223 27.1683 21.7308 26.9554C22.3992 25.5811 23.4463 23.6607 24.8721 21.1942C26.3318 18.7338 27.3827 17.1795 28.0248 16.5315C28.3598 16.2266 28.7137 16.1079 29.0865 16.1753C29.5948 16.2672 29.9549 16.5981 30.1668 17.168C30.4019 17.6092 30.4962 17.9585 30.4497 18.2158C30.4148 18.4089 30.2806 18.667 30.0472 18.9903C29.8138 19.3135 29.5179 19.692 29.1596 20.1255C28.96 20.4549 28.7208 20.8103 28.4419 21.1918C28.1629 21.5733 28.0147 21.8123 27.9973 21.9088C27.9401 22.0314 27.7657 22.4151 27.4742 23.0601C27.1884 23.6729 26.9777 23.9671 26.8422 23.9425C26.5701 24.0927 26.1821 24.7867 25.6784 26.0246C25.1746 27.2624 24.8587 28.2353 24.7307 28.943C24.6667 29.2969 24.6856 29.4831 24.7872 29.5015C26.7865 29.863 29.2111 28.8395 32.0612 26.4311C32.6221 25.0707 33.1084 23.9294 33.5201 23.0071C34.2573 21.446 34.8609 20.0434 35.3308 18.7994C35.6155 18.3858 35.8145 18.156 35.9278 18.11C36.0469 18.0319 36.2759 18.0234 36.6148 18.0847C37.0214 18.1582 37.3036 18.2425 37.4614 18.3375C37.6192 18.4324 37.7876 18.6622 37.9666 19.0268Z" fill="#F9A9A1"/>
</svg>
