<svg width="231" height="89" viewBox="0 0 231 89" fill="none" xmlns="http://www.w3.org/2000/svg">
<g filter="url(#filter0_d_646_76)">
<path fill-rule="evenodd" clip-rule="evenodd" d="M26 11C20.4772 11 16 15.4772 16 21V49C16 52.9923 18.3395 56.4381 21.7223 58.0415C21.2376 62.7274 17.6266 68.2378 16 70C24.1771 68.6372 29.307 64.5173 30.339 59H206C211.523 59 216 54.5229 216 49V21C216 15.4772 211.523 11 206 11H26Z" fill="white" shape-rendering="crispEdges"/>
<path d="M21.7223 58.0415L22.2196 58.0929L22.256 57.7411L21.9364 57.5896L21.7223 58.0415ZM16 70L15.6326 69.6609L14.6429 70.7331L16.0822 70.4932L16 70ZM30.339 59V58.5H29.9239L29.8475 58.9081L30.339 59ZM16.5 21C16.5 15.7533 20.7533 11.5 26 11.5V10.5C20.201 10.5 15.5 15.201 15.5 21H16.5ZM16.5 49V21H15.5V49H16.5ZM21.9364 57.5896C18.7216 56.0659 16.5 52.7919 16.5 49H15.5C15.5 53.1926 17.9573 56.8103 21.5081 58.4933L21.9364 57.5896ZM21.2249 57.99C20.9922 60.2401 20.0017 62.7229 18.8483 64.8815C17.6961 67.0381 16.41 68.8187 15.6326 69.6609L16.3674 70.3391C17.2166 69.4192 18.5493 67.5634 19.7304 65.3528C20.9103 63.1442 21.9677 60.5288 22.2196 58.0929L21.2249 57.99ZM16.0822 70.4932C24.3666 69.1125 29.744 64.9 30.8305 59.0919L29.8475 58.9081C28.8699 64.1346 23.9876 68.1618 15.9178 69.5068L16.0822 70.4932ZM206 58.5H30.339V59.5H206V58.5ZM215.5 49C215.5 54.2467 211.247 58.5 206 58.5V59.5C211.799 59.5 216.5 54.799 216.5 49H215.5ZM215.5 21V49H216.5V21H215.5ZM206 11.5C211.247 11.5 215.5 15.7533 215.5 21H216.5C216.5 15.201 211.799 10.5 206 10.5V11.5ZM26 11.5H206V10.5H26V11.5Z" fill="#3390FD" fill-opacity="0.15"/>
</g>
<defs>
<filter id="filter0_d_646_76" x="0.642822" y="0.5" width="229.857" height="88.2332" filterUnits="userSpaceOnUse" color-interpolation-filters="sRGB">
<feFlood flood-opacity="0" result="BackgroundImageFix"/>
<feColorMatrix in="SourceAlpha" type="matrix" values="0 0 0 0 0 0 0 0 0 0 0 0 0 0 0 0 0 0 127 0" result="hardAlpha"/>
<feOffset dy="4"/>
<feGaussianBlur stdDeviation="7"/>
<feComposite in2="hardAlpha" operator="out"/>
<feColorMatrix type="matrix" values="0 0 0 0 0.2 0 0 0 0 0.564706 0 0 0 0 0.992157 0 0 0 0.2 0"/>
<feBlend mode="normal" in2="BackgroundImageFix" result="effect1_dropShadow_646_76"/>
<feBlend mode="normal" in="SourceGraphic" in2="effect1_dropShadow_646_76" result="shape"/>
</filter>
</defs>
</svg>
