<svg width="282" height="89" viewBox="0 0 282 89" fill="none" xmlns="http://www.w3.org/2000/svg">
<g filter="url(#filter0_d_646_86)">
<path fill-rule="evenodd" clip-rule="evenodd" d="M27 11C21.4772 11 17 15.4772 17 21V49C17 52.5874 18.889 55.7336 21.7267 57.4982C21.2598 62.1935 17.6316 67.7324 16 69.5C23.9281 68.1786 28.9918 64.2656 30.2334 59H257C262.523 59 267 54.5229 267 49V21C267 15.4772 262.523 11 257 11H27Z" fill="white" shape-rendering="crispEdges"/>
<path d="M21.7267 57.4982L22.2242 57.5476L22.255 57.2379L21.9907 57.0736L21.7267 57.4982ZM16 69.5L15.6326 69.1609L14.6429 70.2331L16.0822 69.9932L16 69.5ZM30.2334 59V58.5H29.8376L29.7467 58.8853L30.2334 59ZM17.5 21C17.5 15.7533 21.7533 11.5 27 11.5V10.5C21.201 10.5 16.5 15.201 16.5 21H17.5ZM17.5 49V21H16.5V49H17.5ZM21.9907 57.0736C19.2937 55.3964 17.5 52.4075 17.5 49H16.5C16.5 52.7673 18.4844 56.0708 21.4626 57.9228L21.9907 57.0736ZM21.2291 57.4487C21.005 59.7025 20.015 62.194 18.8589 64.3617C17.7041 66.5271 16.4124 68.3161 15.6326 69.1609L16.3674 69.8391C17.2192 68.9164 18.5575 67.052 19.7413 64.8323C20.924 62.6147 21.9815 59.9891 22.2242 57.5476L21.2291 57.4487ZM16.0822 69.9932C24.1146 68.6545 29.4136 64.6554 30.72 59.1147L29.7467 58.8853C28.57 63.8758 23.7417 67.7028 15.9178 69.0068L16.0822 69.9932ZM257 58.5H30.2334V59.5H257V58.5ZM266.5 49C266.5 54.2467 262.247 58.5 257 58.5V59.5C262.799 59.5 267.5 54.799 267.5 49H266.5ZM266.5 21V49H267.5V21H266.5ZM257 11.5C262.247 11.5 266.5 15.7533 266.5 21H267.5C267.5 15.201 262.799 10.5 257 10.5V11.5ZM27 11.5H257V10.5H27V11.5Z" fill="#3390FD" fill-opacity="0.15"/>
</g>
<defs>
<filter id="filter0_d_646_86" x="0.642822" y="0.5" width="280.857" height="87.7332" filterUnits="userSpaceOnUse" color-interpolation-filters="sRGB">
<feFlood flood-opacity="0" result="BackgroundImageFix"/>
<feColorMatrix in="SourceAlpha" type="matrix" values="0 0 0 0 0 0 0 0 0 0 0 0 0 0 0 0 0 0 127 0" result="hardAlpha"/>
<feOffset dy="4"/>
<feGaussianBlur stdDeviation="7"/>
<feComposite in2="hardAlpha" operator="out"/>
<feColorMatrix type="matrix" values="0 0 0 0 0.2 0 0 0 0 0.564706 0 0 0 0 0.992157 0 0 0 0.2 0"/>
<feBlend mode="normal" in2="BackgroundImageFix" result="effect1_dropShadow_646_86"/>
<feBlend mode="normal" in="SourceGraphic" in2="effect1_dropShadow_646_86" result="shape"/>
</filter>
</defs>
</svg>
