<svg width="273" height="105" viewBox="0 0 273 105" fill="none" xmlns="http://www.w3.org/2000/svg">
<g filter="url(#filter0_d_646_79)">
<path fill-rule="evenodd" clip-rule="evenodd" d="M26 11C20.4772 11 16 15.4772 16 21V65C16 68.7817 18.0992 72.0731 21.1959 73.7726C20.6197 78.4071 17.0999 83.7667 15.5 85.5C23.4281 84.1786 28.4918 80.2656 29.7334 75H248C253.523 75 258 70.5228 258 65V21C258 15.4772 253.523 11 248 11H26Z" fill="white" shape-rendering="crispEdges"/>
<path d="M21.1959 73.7726L21.6921 73.8343L21.734 73.4975L21.4365 73.3343L21.1959 73.7726ZM15.5 85.5L15.1326 85.1609L14.1428 86.2331L15.5822 85.9932L15.5 85.5ZM29.7334 75V74.5H29.3376L29.2467 74.8852L29.7334 75ZM16.5 21C16.5 15.7533 20.7533 11.5 26 11.5V10.5C20.201 10.5 15.5 15.201 15.5 21H16.5ZM16.5 65V21H15.5V65H16.5ZM21.4365 73.3343C18.4933 71.7191 16.5 68.592 16.5 65H15.5C15.5 68.9715 17.7051 72.4272 20.9554 74.2109L21.4365 73.3343ZM20.6997 73.7109C20.4226 75.9403 19.4303 78.376 18.2918 80.4869C17.154 82.5965 15.897 84.3327 15.1326 85.1609L15.8674 85.8391C16.7029 84.934 18.0058 83.1238 19.1719 80.9616C20.3373 78.8008 21.3931 76.2394 21.6921 73.8343L20.6997 73.7109ZM15.5822 85.9932C23.6146 84.6545 28.9136 80.6554 30.22 75.1148L29.2467 74.8852C28.07 79.8758 23.2417 83.7028 15.4178 85.0068L15.5822 85.9932ZM248 74.5H29.7334V75.5H248V74.5ZM257.5 65C257.5 70.2467 253.247 74.5 248 74.5V75.5C253.799 75.5 258.5 70.799 258.5 65H257.5ZM257.5 21V65H258.5V21H257.5ZM248 11.5C253.247 11.5 257.5 15.7533 257.5 21H258.5C258.5 15.201 253.799 10.5 248 10.5V11.5ZM26 11.5H248V10.5H26V11.5Z" fill="#3390FD" fill-opacity="0.15"/>
</g>
<defs>
<filter id="filter0_d_646_79" x="0.142822" y="0.5" width="272.357" height="103.733" filterUnits="userSpaceOnUse" color-interpolation-filters="sRGB">
<feFlood flood-opacity="0" result="BackgroundImageFix"/>
<feColorMatrix in="SourceAlpha" type="matrix" values="0 0 0 0 0 0 0 0 0 0 0 0 0 0 0 0 0 0 127 0" result="hardAlpha"/>
<feOffset dy="4"/>
<feGaussianBlur stdDeviation="7"/>
<feComposite in2="hardAlpha" operator="out"/>
<feColorMatrix type="matrix" values="0 0 0 0 0.2 0 0 0 0 0.564706 0 0 0 0 0.992157 0 0 0 0.2 0"/>
<feBlend mode="normal" in2="BackgroundImageFix" result="effect1_dropShadow_646_79"/>
<feBlend mode="normal" in="SourceGraphic" in2="effect1_dropShadow_646_79" result="shape"/>
</filter>
</defs>
</svg>
