<svg width="273" height="89" viewBox="0 0 273 89" fill="none" xmlns="http://www.w3.org/2000/svg">
<g filter="url(#filter0_d_646_89)">
<path fill-rule="evenodd" clip-rule="evenodd" d="M26.5 11C20.9772 11 16.5 15.4772 16.5 21V49C16.5 52.7817 18.5992 56.0731 21.6959 57.7726C21.1197 62.4071 17.5999 67.7667 16 69.5C23.9281 68.1786 28.9918 64.2656 30.2334 59H248.5C254.023 59 258.5 54.5229 258.5 49V21C258.5 15.4772 254.023 11 248.5 11H26.5Z" fill="white" shape-rendering="crispEdges"/>
<path d="M21.6959 57.7726L22.1921 57.8343L22.234 57.4975L21.9365 57.3343L21.6959 57.7726ZM16 69.5L15.6326 69.1609L14.6428 70.2331L16.0822 69.9932L16 69.5ZM30.2334 59V58.5H29.8376L29.7467 58.8853L30.2334 59ZM17 21C17 15.7533 21.2533 11.5 26.5 11.5V10.5C20.701 10.5 16 15.201 16 21H17ZM17 49V21H16V49H17ZM21.9365 57.3343C18.9933 55.7191 17 52.592 17 49H16C16 52.9715 18.2051 56.4272 21.4554 58.2109L21.9365 57.3343ZM21.1997 57.7109C20.9226 59.9403 19.9303 62.376 18.7918 64.4869C17.654 66.5965 16.397 68.3327 15.6326 69.1609L16.3674 69.8391C17.2029 68.934 18.5058 67.1238 19.6719 64.9616C20.8373 62.8008 21.8931 60.2394 22.1921 57.8343L21.1997 57.7109ZM16.0822 69.9932C24.1146 68.6545 29.4136 64.6554 30.72 59.1147L29.7467 58.8853C28.57 63.8758 23.7417 67.7028 15.9178 69.0068L16.0822 69.9932ZM248.5 58.5H30.2334V59.5H248.5V58.5ZM258 49C258 54.2467 253.747 58.5 248.5 58.5V59.5C254.299 59.5 259 54.799 259 49H258ZM258 21V49H259V21H258ZM248.5 11.5C253.747 11.5 258 15.7533 258 21H259C259 15.201 254.299 10.5 248.5 10.5V11.5ZM26.5 11.5H248.5V10.5H26.5V11.5Z" fill="#3390FD" fill-opacity="0.15"/>
</g>
<defs>
<filter id="filter0_d_646_89" x="0.642822" y="0.5" width="272.357" height="87.7332" filterUnits="userSpaceOnUse" color-interpolation-filters="sRGB">
<feFlood flood-opacity="0" result="BackgroundImageFix"/>
<feColorMatrix in="SourceAlpha" type="matrix" values="0 0 0 0 0 0 0 0 0 0 0 0 0 0 0 0 0 0 127 0" result="hardAlpha"/>
<feOffset dy="4"/>
<feGaussianBlur stdDeviation="7"/>
<feComposite in2="hardAlpha" operator="out"/>
<feColorMatrix type="matrix" values="0 0 0 0 0.2 0 0 0 0 0.564706 0 0 0 0 0.992157 0 0 0 0.2 0"/>
<feBlend mode="normal" in2="BackgroundImageFix" result="effect1_dropShadow_646_89"/>
<feBlend mode="normal" in="SourceGraphic" in2="effect1_dropShadow_646_89" result="shape"/>
</filter>
</defs>
</svg>
